<svg xmlns="http://www.w3.org/2000/svg" width="75.948" height="96.786" viewBox="0 0 75.948 96.786"><g transform="translate(0 0)"><path d="M285.593-262.247c.066-.035.049-.1.049-.153a22.043,22.043,0,0,1,.16-2.44c.081-.838.2-1.674.322-2.509a46.242,46.242,0,0,1,1.009-4.95,48.49,48.49,0,0,1,1.593-4.956,50.177,50.177,0,0,1,2.363-5.25c.6-1.162,1.268-2.29,1.967-3.4q1.152-1.824,2.462-3.537.778-1.016,1.618-1.986c.7-.811,1.436-1.587,2.163-2.373.546-.591,1.136-1.135,1.719-1.682,1.068-1,2.19-1.943,3.351-2.841s2.367-1.744,3.6-2.542c1.017-.657,2.07-1.257,3.137-1.831.927-.5,1.867-.969,2.824-1.4q1.774-.807,3.609-1.466a48.078,48.078,0,0,1,5.054-1.514c1.118-.267,2.246-.49,3.38-.682.9-.152,1.795-.28,2.7-.378.662-.072,1.331-.111,2-.167,1.728-.145,3.457-.087,5.185-.079.894,0,1.788.087,2.68.178.525.053,1.052.1,1.576.164.676.078,1.35.181,2.02.3,1.109.193,2.212.414,3.305.683a49.708,49.708,0,0,1,5.78,1.8,48.867,48.867,0,0,1,5.292,2.387c1.153.6,2.276,1.259,3.374,1.956.213.135.419.28.634.41.11.067.125.126.049.234-.632.905-1.258,1.815-1.888,2.722q-.743,1.07-1.49,2.138c-.344.492-.7.979-1.028,1.48-.088.132-.139.11-.243.042a38.388,38.388,0,0,0-4.615-2.592q-1.76-.841-3.6-1.5a41.265,41.265,0,0,0-4.758-1.4c-1.034-.238-2.076-.435-3.128-.583-.885-.124-1.769-.238-2.662-.3-.553-.038-1.107-.059-1.66-.1-.8-.059-1.59-.05-2.383-.033-.9.019-1.811.063-2.711.148a41.05,41.05,0,0,0-4.852.738q-1.626.354-3.223.835-1.736.528-3.419,1.208a37.116,37.116,0,0,0-3.619,1.707,40.028,40.028,0,0,0-3.651,2.205c-1.013.692-2,1.417-2.94,2.208-.781.657-1.536,1.341-2.289,2.029-.613.56-1.175,1.166-1.736,1.77a37.966,37.966,0,0,0-3.075,3.783,42.281,42.281,0,0,0-2.591,4.1,40.829,40.829,0,0,0-2.529,5.543,41.039,41.039,0,0,0-1.446,4.794q-.388,1.631-.62,3.294c-.121.861-.235,1.721-.3,2.589-.038.529-.06,1.059-.1,1.586a29.663,29.663,0,0,0-.027,3.049c.023.844.083,1.69.172,2.533.076.727.162,1.453.267,2.175.115.793.275,1.58.438,2.365a39.22,39.22,0,0,0,1.472,5.165c.389,1.095.832,2.168,1.315,3.225.421.92.869,1.826,1.359,2.709a42.223,42.223,0,0,0,2.606,4.116c.649.906,1.356,1.764,2.054,2.631.235.292.49.568.742.845.69.759,1.407,1.494,2.154,2.2.937.881,1.918,1.713,2.931,2.509a40.389,40.389,0,0,0,4.427,3.014c.918.542,1.857,1.05,2.82,1.511a42.394,42.394,0,0,0,5.777,2.272,41.588,41.588,0,0,0,4.432,1.1c.8.153,1.6.269,2.4.363.913.106,1.825.2,2.745.248.972.049,1.945.122,2.917.083.726-.029,1.453-.037,2.177-.1.793-.064,1.587-.137,2.374-.248,1.235-.174,2.462-.388,3.68-.667a41.39,41.39,0,0,0,4.346-1.245,37.394,37.394,0,0,0,3.474-1.413,39.5,39.5,0,0,0,5.771-3.309c.1-.071.184-.143.3.025q1.874,2.731,3.768,5.45c.189.274.383.545.569.821.078.115.113.2-.05.317-.934.665-1.909,1.265-2.892,1.853-1.161.694-2.356,1.328-3.575,1.913-1.385.664-2.8,1.254-4.242,1.789a46.535,46.535,0,0,1-4.971,1.535c-1.249.311-2.507.583-3.781.781-.978.152-1.955.3-2.941.394-.583.055-1.166.108-1.75.152-.335.025-.669.035-1,.041-.041,0-.082,0-.1.049H331.83a7.075,7.075,0,0,0-1.05-.043,43.694,43.694,0,0,1-8.243-1.228,46.87,46.87,0,0,1-6.682-2.136A48.425,48.425,0,0,1,308-219.059a50.561,50.561,0,0,1-5.674-4.209,46.882,46.882,0,0,1-3.779-3.637,48.011,48.011,0,0,1-6.779-9.232,48.453,48.453,0,0,1-4.007-9.174,47.728,47.728,0,0,1-1.773-7.775,30.089,30.089,0,0,1-.37-4.558.145.145,0,0,0-.025-.116Z" transform="translate(-285.593 308.4)" fill="#beaf87"/><path d="M369.063-202.3H381.83a6.306,6.306,0,0,1-.539.855c-.45.676-.915,1.342-1.374,2.012q-1.333,1.95-2.665,3.9c-.253.368-.521.727-.767,1.1a.233.233,0,0,1-.238.125c-.041,0-.082,0-.123,0h-22.4c.442-.648.854-1.258,1.272-1.863s.847-1.211,1.267-1.818q1.753-2.533,3.5-5.068,1.1-1.593,2.208-3.181,1.733-2.5,3.464-5.007,1.282-1.852,2.567-3.7c.977-1.407,1.969-2.8,2.926-4.224a8.369,8.369,0,0,0,1.382-3.224,4.542,4.542,0,0,0-.584-3.149,5.112,5.112,0,0,0-3.761-2.472,5.047,5.047,0,0,0-3.157.478,5.147,5.147,0,0,0-2.719,3.342,4.723,4.723,0,0,0-.163,1.623c.012.177-.053.219-.222.218q-3.77-.007-7.541,0c-.191,0-.227-.06-.229-.238a13.082,13.082,0,0,1,.96-5.167,14.013,14.013,0,0,1,2-3.415,12.884,12.884,0,0,1,3.91-3.3,12.862,12.862,0,0,1,4.05-1.4,13.931,13.931,0,0,1,3.221-.178,12.861,12.861,0,0,1,4.447,1.071,12.944,12.944,0,0,1,3.12,1.93,12.959,12.959,0,0,1,1.9,1.976A12.828,12.828,0,0,1,379-228.769a13.813,13.813,0,0,1,1.18,3.671,14.458,14.458,0,0,1,.174,3.172,11.651,11.651,0,0,1-.472,2.626,15.576,15.576,0,0,1-1.258,3.036,22.188,22.188,0,0,1-1.462,2.214q-1.588,2.292-3.169,4.588-1.274,1.842-2.554,3.682-1.147,1.65-2.3,3.3A.252.252,0,0,0,369.063-202.3Z" transform="translate(-327.815 263.581)" fill="#beaf87"/><path d="M432.552-228.139c.257-.383.483-.727.717-1.066.425-.614.857-1.224,1.283-1.838q1.736-2.5,3.465-5.007a.25.25,0,0,1,.238-.126q4.547,0,9.094,0c.168,0,.22.058.2.213a.948.948,0,0,0,0,.123q0,20.594,0,41.189c0,.385.05.334-.345.334q-3.672,0-7.344,0c-.394,0-.345.051-.345-.335q0-16.576,0-33.153c0-.376.046-.331-.323-.332q-3.155,0-6.309,0Z" transform="translate(-376.665 263.643)" fill="#beaf87"/></g></svg>