<?xml version="1.0" standalone="no"?>
<!DOCTYPE svg PUBLIC "-//W3C//DTD SVG 20010904//EN"
 "http://www.w3.org/TR/2001/REC-SVG-20010904/DTD/svg10.dtd">
<svg version="1.0" xmlns="http://www.w3.org/2000/svg"
 width="150.000000pt" height="150.000000pt" viewBox="0 0 150.000000 150.000000"
 preserveAspectRatio="xMidYMid meet">

<g transform="translate(0.000000,150.000000) scale(0.100000,-0.100000)"
fill="#000000" stroke="none">
<path d="M435 1186 c-45 -20 -67 -50 -72 -100 -9 -77 22 -108 136 -136 70 -17
93 -38 75 -67 -7 -12 -27 -19 -57 -21 -40 -3 -51 1 -72 23 -21 24 -29 26 -65
20 -51 -9 -52 -26 -2 -75 31 -32 47 -39 94 -45 128 -16 208 36 208 135 0 61
-45 103 -125 120 -75 15 -95 26 -95 50 0 42 65 52 106 17 24 -21 32 -23 66
-14 21 5 38 15 38 21 0 18 -50 63 -83 75 -38 15 -115 13 -152 -3z"/>
<path d="M1070 995 l0 -205 45 0 45 0 0 205 0 205 -45 0 -45 0 0 -205z"/>
<path d="M830 1090 c-70 -17 -133 -116 -116 -183 28 -113 179 -164 267 -89
132 111 20 314 -151 272z"/>
<path d="M700 674 l0 -45 43 3 c42 3 42 3 45 46 l3 42 -45 0 -46 0 0 -46z"/>
<path d="M380 607 c0 -1 24 -70 54 -152 l54 -150 35 -3 c26 -2 36 1 42 15 4
10 29 80 56 156 l48 137 -34 0 c-34 0 -34 0 -61 -87 -16 -49 -31 -91 -34 -95
-3 -4 -19 35 -34 87 l-29 95 -48 0 c-27 0 -49 -1 -49 -3z"/>
<path d="M700 455 l0 -155 45 0 45 0 0 155 0 155 -45 0 -45 0 0 -155z"/>
<path d="M893 595 c-17 -7 -39 -27 -47 -43 l-16 -30 41 -7 c35 -6 43 -4 55 14
19 26 79 29 88 5 13 -33 6 -44 -26 -44 -50 0 -105 -18 -135 -44 -38 -33 -38
-89 1 -122 35 -31 102 -33 139 -4 14 11 28 20 31 20 3 0 6 -9 6 -20 0 -17 7
-20 43 -20 l42 0 -3 118 c-4 148 -6 158 -42 177 -36 19 -134 19 -177 0z m127
-175 c0 -29 -29 -70 -51 -70 -22 0 -49 21 -49 39 0 22 19 40 57 51 42 13 43
12 43 -20z"/>
</g>
</svg>
